<?xml version="1.0" standalone="no"?>
<!DOCTYPE svg PUBLIC "-//W3C//DTD SVG 20010904//EN"
 "http://www.w3.org/TR/2001/REC-SVG-20010904/DTD/svg10.dtd">
<svg version="1.0" xmlns="http://www.w3.org/2000/svg"
 width="512.000000pt" height="512.000000pt" viewBox="0 0 512.000000 512.000000"
 preserveAspectRatio="xMidYMid meet">

<g transform="translate(0.000000,512.000000) scale(0.100000,-0.100000)"
fill="#000000" stroke="none">
<path d="M2351 5069 c-128 -14 -273 -46 -406 -90 -734 -244 -1257 -897 -1335
-1668 -38 -375 42 -715 275 -1182 277 -551 812 -1260 1417 -1874 l206 -210 52
0 52 0 206 210 c764 776 1369 1640 1587 2267 147 421 151 799 14 1213 -288
872 -1152 1429 -2068 1334z m491 -579 c279 -58 495 -177 703 -385 129 -129
192 -215 268 -365 100 -200 141 -379 141 -620 0 -299 -73 -540 -239 -790 -64
-97 -268 -301 -365 -365 -710 -471 -1637 -235 -2035 517 -54 104 -98 229 -127
361 -31 146 -31 408 0 554 58 271 174 490 361 685 104 109 195 182 316 251
149 87 342 152 517 176 110 15 346 5 460 -19z"/>
<path d="M2515 4110 c-20 -8 -904 -807 -935 -845 -9 -10 -15 -38 -15 -66 0
-42 5 -53 33 -81 31 -31 37 -33 117 -37 l84 -3 3 -404 3 -404 33 -32 32 -33
190 0 190 0 32 33 33 32 5 270 5 270 33 32 32 33 170 0 170 0 32 -33 33 -32 5
-270 5 -270 33 -32 32 -33 190 0 190 0 32 33 33 32 3 404 3 404 84 3 c80 4 86
6 117 37 28 28 33 39 33 81 0 35 -6 56 -20 72 -49 55 -910 831 -932 840 -29
11 -61 11 -88 -1z"/>
</g>
</svg>
