<?xml version="1.0" standalone="no"?>
<!DOCTYPE svg PUBLIC "-//W3C//DTD SVG 20010904//EN"
 "http://www.w3.org/TR/2001/REC-SVG-20010904/DTD/svg10.dtd">
<svg version="1.0" xmlns="http://www.w3.org/2000/svg"
 width="512.000000pt" height="512.000000pt" viewBox="0 0 512.000000 512.000000"
 preserveAspectRatio="xMidYMid meet">

<g transform="translate(0.000000,512.000000) scale(0.100000,-0.100000)"
fill="#000000" stroke="none">
<path d="M2351 5109 c-604 -68 -1145 -409 -1463 -922 -254 -408 -353 -926
-258 -1357 113 -517 461 -1104 1134 -1910 158 -189 788 -910 796 -910 8 0 585
660 786 900 764 909 1119 1551 1175 2122 23 238 -23 553 -118 808 -247 662
-829 1138 -1533 1255 -116 19 -405 27 -519 14z m489 -564 c578 -127 1004 -560
1116 -1135 27 -139 25 -399 -4 -537 -124 -580 -571 -1015 -1152 -1118 -126
-23 -353 -23 -479 -1 -581 104 -1029 539 -1153 1119 -29 137 -31 398 -5 532
39 195 104 362 202 511 71 110 86 128 188 232 212 216 474 353 782 407 107 19
401 13 505 -10z"/>
<path d="M2328 3897 c-525 -380 -692 -503 -705 -524 -23 -34 -27 -95 -10 -129
28 -53 62 -77 119 -82 49 -3 57 -1 111 37 32 23 60 41 62 41 3 0 5 -182 5
-405 0 -440 0 -443 56 -498 57 -57 76 -62 244 -62 l155 0 3 352 2 351 31 26
c29 25 36 26 159 26 123 0 130 -1 159 -26 l31 -26 2 -351 3 -352 155 0 c146 0
158 1 197 24 24 14 55 42 70 64 l28 40 3 419 c1 230 5 418 7 418 2 0 30 -18
62 -41 54 -38 62 -40 111 -37 57 5 91 29 119 82 18 34 13 95 -11 130 -12 19
-374 287 -815 603 -64 46 -79 53 -121 53 -46 0 -57 -6 -232 -133z"/>
</g>
</svg>
