<?xml version="1.0" encoding="UTF-8"?>
<!DOCTYPE svg PUBLIC "-//W3C//DTD SVG 1.1//EN" "http://www.w3.org/Graphics/SVG/1.1/DTD/svg11.dtd">
<svg xmlns="http://www.w3.org/2000/svg" version="1.1" width="512px" height="512px" style="shape-rendering:geometricPrecision; text-rendering:geometricPrecision; image-rendering:optimizeQuality; fill-rule:evenodd; clip-rule:evenodd" xmlns:xlink="http://www.w3.org/1999/xlink">
<g><path style="opacity:0.979" fill="#000000" d="M 236.5,-0.5 C 249.167,-0.5 261.833,-0.5 274.5,-0.5C 343.489,9.66379 392.656,46.3305 422,109.5C 432.608,135.146 436.941,161.813 435,189.5C 428.696,215.449 419.029,240.115 406,263.5C 370.982,324.823 333.982,384.823 295,443.5C 286.374,457.918 277.874,472.418 269.5,487C 314.5,487.333 359.5,487.667 404.5,488C 410.105,489.774 412.771,493.607 412.5,499.5C 412.652,505.001 410.319,509.001 405.5,511.5C 305.167,511.5 204.833,511.5 104.5,511.5C 97.6548,505.941 96.3215,499.274 100.5,491.5C 102.028,490.139 103.695,488.972 105.5,488C 150.833,487.667 196.167,487.333 241.5,487C 210.125,434.968 177.958,383.468 145,332.5C 132.081,310.998 119.414,289.331 107,267.5C 95.3873,245.991 85.7207,223.657 78,200.5C 70.3732,132.711 93.2065,77.5445 146.5,35C 173.479,15.3982 203.479,3.56489 236.5,-0.5 Z M 246.5,38.5 C 300.419,37.5379 341.919,59.5379 371,104.5C 394.535,147.999 395.535,191.999 374,236.5C 344.378,286.067 300.545,309.567 242.5,307C 185.069,298.563 146.569,267.063 127,212.5C 112.698,155.752 127.198,107.919 170.5,69C 192.857,51.3183 218.19,41.1516 246.5,38.5 Z M 266.5,205.5 C 270.955,206.29 273.289,208.956 273.5,213.5C 273.264,220.525 270.097,222.525 264,219.5C 261.541,214.203 262.375,209.536 266.5,205.5 Z"/></g>
<g><path style="opacity:0.975" fill="#000000" d="M 248.5,80.5 C 257.513,79.3371 265.846,81.1704 273.5,86C 283.03,95.8637 292.863,105.364 303,114.5C 303.333,108.5 303.667,102.5 304,96.5C 304.374,95.5838 304.874,94.7504 305.5,94C 314.064,92.3933 322.73,92.06 331.5,93C 333.333,93.5 334.5,94.6667 335,96.5C 335.333,113.5 335.667,130.5 336,147.5C 343.67,153.848 348.503,161.848 350.5,171.5C 348.975,180.027 343.975,185.36 335.5,187.5C 334.953,207.876 334.12,228.209 333,248.5C 331.167,254.333 327.333,258.167 321.5,260C 311.172,260.5 300.839,260.666 290.5,260.5C 290.973,233.769 290.473,207.102 289,180.5C 286.5,175.333 282.667,171.5 277.5,169C 269.893,167.904 262.227,167.404 254.5,167.5C 247.092,167.387 239.759,167.887 232.5,169C 227.08,170.788 223.247,174.288 221,179.5C 219.526,206.436 219.026,233.436 219.5,260.5C 208.828,260.667 198.161,260.5 187.5,260C 181.508,257.341 177.675,252.841 176,246.5C 175.833,226.825 175.333,207.158 174.5,187.5C 161.712,182.917 157.879,174.25 163,161.5C 164.752,158.328 166.752,155.328 169,152.5C 191.833,130.333 214.667,108.167 237.5,86C 241.017,83.6738 244.683,81.8405 248.5,80.5 Z M 266.5,205.5 C 262.375,209.536 261.541,214.203 264,219.5C 270.097,222.525 273.264,220.525 273.5,213.5C 273.289,208.956 270.955,206.29 266.5,205.5 Z"/></g>
<g><path style="opacity:0.972" fill="#000000" d="M 235.5,178.5 C 248.504,178.333 261.504,178.5 274.5,179C 276.815,180.109 278.315,181.943 279,184.5C 279.5,209.831 279.667,235.164 279.5,260.5C 263.167,260.5 246.833,260.5 230.5,260.5C 230.333,234.831 230.5,209.165 231,183.5C 232.025,181.313 233.525,179.646 235.5,178.5 Z M 266.5,205.5 C 262.375,209.536 261.541,214.203 264,219.5C 270.097,222.525 273.264,220.525 273.5,213.5C 273.289,208.956 270.955,206.29 266.5,205.5 Z"/></g>
</svg>
