<?xml version="1.0" encoding="UTF-8" standalone="no" ?>
<!DOCTYPE svg PUBLIC "-//W3C//DTD SVG 1.1//EN" "http://www.w3.org/Graphics/SVG/1.1/DTD/svg11.dtd">
<svg xmlns="http://www.w3.org/2000/svg" xmlns:xlink="http://www.w3.org/1999/xlink" version="1.1" width="1080" height="1080" viewBox="0 0 1080 1080" xml:space="preserve">
<desc>Created with Fabric.js 5.2.4</desc>
<defs>
</defs>
<rect x="0" y="0" width="100%" height="100%" fill="transparent"></rect>
<g transform="matrix(1 0 0 1 540 540)" id="dd831381-3181-4a80-9d4b-113ebe6458f4"  >
<rect style="stroke: none; stroke-width: 1; stroke-dasharray: none; stroke-linecap: butt; stroke-dashoffset: 0; stroke-linejoin: miter; stroke-miterlimit: 4; fill: rgb(255,255,255); fill-rule: nonzero; opacity: 1; visibility: hidden;" vector-effect="non-scaling-stroke"  x="-540" y="-540" rx="0" ry="0" width="1080" height="1080" />
</g>
<g transform="matrix(1 0 0 1 540 540)" id="848091d4-f8a0-40a5-be20-842ec2b431df"  >
</g>
<g transform="matrix(0.21 0 0 -0.21 540 540)"  >
<path style="stroke: none; stroke-width: 1; stroke-dasharray: none; stroke-linecap: butt; stroke-dashoffset: 0; stroke-linejoin: miter; stroke-miterlimit: 4; fill: rgb(0,0,0); fill-rule: nonzero; opacity: 1;" vector-effect="non-scaling-stroke"  transform=" translate(-2558.17, -2564.49)" d="M 2370 5109 C 2102 5078 1847 4984 1614 4829 C 1465 4730 1262 4527 1161 4376 C 994 4125 908 3878 878 3567 C 849 3256 930 2924 1148 2459 C 1228 2289 1378 2021 1615 1625 C 1736 1422 1998 975 2195 633 C 2393 290 2557 10 2560 10 C 2563 10 2727 290 2925 633 C 3122 975 3377 1410 3491 1600 C 3812 2135 3958 2409 4068 2675 C 4196 2987 4245 3201 4244 3445 C 4244 3722 4191 3939 4064 4195 C 3986 4352 3894 4476 3745 4626 C 3560 4812 3385 4925 3145 5015 C 2910 5103 2622 5138 2370 5109 z M 2780 4724 C 3170 4657 3514 4401 3693 4045 C 3859 3715 3874 3331 3733 2990 C 3523 2482 3000 2162 2455 2210 C 1884 2260 1434 2662 1313 3230 C 1288 3348 1288 3602 1313 3720 C 1424 4239 1826 4634 2335 4724 C 2446 4744 2665 4744 2780 4724 z" stroke-linecap="round" />
</g>
<g transform="matrix(1.63 0 0 1.63 540 326.9)"  >
<path style="stroke: none; stroke-width: 1; stroke-dasharray: none; stroke-linecap: butt; stroke-dashoffset: 0; stroke-linejoin: miter; stroke-miterlimit: 4; fill: rgb(0,0,0); fill-rule: evenodd; opacity: 0.97;" vector-effect="non-scaling-stroke"  transform=" translate(-255.65, -170.36)" d="M 248.5 80.5 C 257.513 79.3371 265.846 81.1704 273.5 86 C 283.03 95.8637 292.863 105.364 303 114.5 C 303.333 108.5 303.667 102.5 304 96.5 C 304.374 95.5838 304.874 94.7504 305.5 94 C 314.064 92.3933 322.73 92.06 331.5 93 C 333.333 93.5 334.5 94.6667 335 96.5 C 335.333 113.5 335.667 130.5 336 147.5 C 343.67 153.848 348.503 161.848 350.5 171.5 C 348.975 180.027 343.975 185.36 335.5 187.5 C 334.953 207.876 334.12 228.209 333 248.5 C 331.167 254.333 327.333 258.167 321.5 260 C 311.172 260.5 300.839 260.666 290.5 260.5 C 290.973 233.769 290.473 207.102 289 180.5 C 286.5 175.333 282.667 171.5 277.5 169 C 269.893 167.904 262.227 167.404 254.5 167.5 C 247.092 167.387 239.759 167.887 232.5 169 C 227.08 170.788 223.247 174.288 221 179.5 C 219.526 206.436 219.026 233.436 219.5 260.5 C 208.828 260.667 198.161 260.5 187.5 260 C 181.508 257.341 177.675 252.841 176 246.5 C 175.833 226.825 175.333 207.158 174.5 187.5 C 161.712 182.917 157.879 174.25 163 161.5 C 164.752 158.328 166.752 155.328 169 152.5 C 191.833 130.333 214.667 108.167 237.5 86 C 241.017 83.6738 244.683 81.8405 248.5 80.5 Z M 266.5 205.5 C 262.375 209.536 261.541 214.203 264 219.5 C 270.097 222.525 273.264 220.525 273.5 213.5 C 273.289 208.956 270.955 206.29 266.5 205.5 Z" stroke-linecap="round" />
</g>
<g transform="matrix(1.61 0 0 1.63 539.4 407.31)"  >
<path style="stroke: none; stroke-width: 1; stroke-dasharray: none; stroke-linecap: butt; stroke-dashoffset: 0; stroke-linejoin: miter; stroke-miterlimit: 4; fill: rgb(0,0,0); fill-rule: evenodd; opacity: 0.97;" vector-effect="non-scaling-stroke"  transform=" translate(-255, -219.47)" d="M 235.5 178.5 C 248.504 178.333 261.504 178.5 274.5 179 C 276.815 180.109 278.315 181.943 279 184.5 C 279.5 209.831 279.667 235.164 279.5 260.5 C 263.167 260.5 246.833 260.5 230.5 260.5 C 230.333 234.831 230.5 209.165 231 183.5 C 232.025 181.313 233.525 179.646 235.5 178.5 Z M 266.5 205.5 C 262.375 209.536 261.541 214.203 264 219.5 C 270.097 222.525 273.264 220.525 273.5 213.5 C 273.289 208.956 270.955 206.29 266.5 205.5 Z" stroke-linecap="round" />
</g>
</svg>
