<?xml version="1.0" standalone="no"?>
<!DOCTYPE svg PUBLIC "-//W3C//DTD SVG 20010904//EN"
 "http://www.w3.org/TR/2001/REC-SVG-20010904/DTD/svg10.dtd">
<svg version="1.0" xmlns="http://www.w3.org/2000/svg"
 width="512.000000pt" height="512.000000pt" viewBox="0 0 512.000000 512.000000"
 preserveAspectRatio="xMidYMid meet">

<g transform="translate(0.000000,512.000000) scale(0.100000,-0.100000)"
fill="#000000" stroke="none">
<path d="M2370 5109 c-268 -31 -523 -125 -756 -280 -149 -99 -352 -302 -453
-453 -167 -251 -253 -498 -283 -809 -29 -311 52 -643 270 -1108 80 -170 230
-438 467 -834 121 -203 383 -650 580 -992 198 -343 362 -623 365 -623 3 0 167
280 365 623 197 342 452 777 566 967 321 535 467 809 577 1075 128 312 177
526 176 770 0 277 -53 494 -180 750 -78 157 -170 281 -319 431 -185 186 -360
299 -600 389 -235 88 -523 123 -775 94z m410 -385 c390 -67 734 -323 913 -679
166 -330 181 -714 40 -1055 -210 -508 -733 -828 -1278 -780 -571 50 -1021 452
-1142 1020 -25 118 -25 372 0 490 111 519 513 914 1022 1004 111 20 330 20
445 0z"/>
<path d="M2063 4097 c-271 -127 -493 -234 -493 -237 1 -7 964 -454 987 -457
10 -2 171 69 358 156 l340 160 3 -331 2 -330 -25 -20 c-109 -85 -45 -268 93
-268 76 0 152 75 152 150 0 41 -26 95 -56 119 l-24 19 0 365 0 365 75 33 c41
19 75 37 75 40 0 5 -969 461 -989 465 -3 1 -228 -102 -498 -229z"/>
<path d="M2070 3281 l0 -251 490 0 490 0 0 250 c0 138 -1 250 -3 250 -2 0
-109 -49 -238 -110 -129 -60 -240 -110 -247 -110 -8 0 -116 48 -240 106 -125
58 -233 108 -239 111 -10 4 -13 -49 -13 -246z"/>
</g>
</svg>
